<?xml version="1.0" encoding="utf-8"?>
<!-- Generator: Adobe Illustrator 27.7.0, SVG Export Plug-In . SVG Version: 6.00 Build 0)  -->
<svg version="1.1" id="Layer_1" xmlns="http://www.w3.org/2000/svg" xmlns:xlink="http://www.w3.org/1999/xlink" x="0px" y="0px"
	 viewBox="0 0 700 700" style="enable-background:new 0 0 700 700;" xml:space="preserve">
<style type="text/css">
	.st0{fill:#72A681;}
</style>
<g>
	<path class="st0" d="M655.2,111.2H44.8C22.3,111.2,5,128.5,5,151V549c0,22.5,17.3,39.8,39.8,39.8h610.4c22.5,0,39.8-17.3,39.8-39.8
		V151C695,128.5,677.7,111.2,655.2,111.2L655.2,111.2z M31.5,151c0-8.1,5.2-13.3,13.3-13.3h610.4c8.1,0,13.3,5.2,13.3,13.3v106.2
		H31.5V151z M668.5,549c0,8.1-5.2,13.3-13.3,13.3H44.8c-8.1,0-13.3-5.2-13.3-13.3V283.7h636.9L668.5,549z M376.5,429.6H111.2v-26.5
		h265.4V429.6z M588.8,429.6H482.7v-26.5h106.2V429.6z"/>
</g>
</svg>
