<?xml version="1.0" encoding="UTF-8"?><svg id="Layer_1" xmlns="http://www.w3.org/2000/svg" viewBox="0 0 15 16.5"><defs><style>.cls-1{fill:#050505;}</style></defs><path class="cls-1" d="m13.5,8.49c-.36-.22-.71-.45-1.07-.67-.08-.05-.14-.13-.15-.23-.11-.61-.23-1.21-.35-1.82-.04-.21-.22-.36-.44-.36-1.11,0-2.21,0-3.32,0-.08,0-.16,0-.26-.02.04-.09.06-.16.09-.22.07-.16.14-.31.21-.47.12-.27.05-.37-.23-.37-.3,0-.61,0-.91,0-.35,0-.32-.04-.49.32-.07.15-.15.3-.23.48-.04-.06-.06-.08-.07-.12-.08-.18-.16-.36-.24-.54-.04-.1-.11-.15-.22-.15-.04,0-.08,0-.11,0-1.35,0-2.71,0-4.06,0-.04,0-.09,0-.13,0-.15.01-.21.1-.18.25.01.04.03.08.05.12.11.23.21.47.33.7.07.14.11.3.11.46,0,1.64,0,3.29,0,4.93,0,.32.04.36.36.36.14,0,.29,0,.44,0,.02.07.03.13.05.18.05.19.13.35.26.5.33.39.86.41,1.22.05.15-.15.24-.34.3-.54.02-.06.04-.12.06-.2h.46c.16,0,.32,0,.47,0,.15,0,.3-.03.44.03.04.42.22.74.62.9.4.16.75.07,1.07-.2.07.05.12.09.18.13.29.19.62.19.9-.01.22-.16.34-.38.42-.64.02-.06.04-.13.06-.18.22-.04,1.57-.03,1.73,0,.11.61.43.99,1.11.97.2,0,.38-.1.53-.22.23-.19.33-.45.36-.76.07,0,.13-.01.2-.01.14,0,.28,0,.42,0,.18,0,.24-.07.24-.24v-2.07c0-.16-.05-.27-.19-.36Zm-9.61,3.1c-.2.25-.51.25-.71,0-.26-.32-.27-.88-.02-1.2.22-.29.54-.29.75.01.12.18.17.37.17.59,0,.22-.06.42-.2.6Zm4.65-.02c-.19.27-.51.28-.72.03-.29-.35-.27-.96.04-1.28.2-.2.46-.19.64.02.16.19.22.41.21.66,0,.2-.06.39-.18.56Zm1.15-.8c-.19.03-.38.01-.58.01-.02-.07-.04-.13-.06-.18-.06-.21-.16-.4-.31-.56-.33-.32-.79-.33-1.12,0-.14.14-.25.3-.3.49-.02.07-.04.14-.07.24-.3.03-.61.01-.92.02-.3,0-.61,0-.91,0h-.94c-.02-.09-.04-.15-.06-.21-.08-.24-.19-.46-.4-.61-.36-.27-.82-.21-1.1.14-.12.15-.21.32-.26.5-.01.05-.03.1-.04.15-.13.05-.26.03-.38.02-.01-.01-.02-.02-.02-.02,0,0,0-.01,0-.02,0-.02-.01-.05-.01-.07,0-1.58,0-3.16,0-4.74,0-.03,0-.05,0-.08,0-.01.01-.02.02-.03.15-.03,5.51-.04,5.72,0,.02.06.05.13.07.2.16.58.33,1.17.49,1.75.05.2.15.33.33.43.3.17.58.36.87.54v2.02Zm1.32-.99s-.02.07-.04.1c-.09.2-.35.27-.5.11-.18-.17-.18-.54,0-.72.14-.14.32-.13.45.01.02.02.04.05.06.08.07.13.08.28.04.42Zm-2.1-2.04c-.09-.15-.52-1.65-.56-1.9,0,0,0-.01.01-.01,0,0,0-.01.02-.01.06,0,.11-.01.17-.01.97,0,1.95,0,2.92,0,.02,0,.04.01.08.03.12.61.23,1.21.36,1.85-1.02.02-2.01.04-2.99.06Zm4.17,2.25c-.14.19-.39.19-.52-.01-.04-.06-.07-.13-.08-.2-.03-.24.06-.41.15-.48.13-.12.3-.1.42.03.15.17.17.48.03.67Z"/><path class="cls-1" d="m3.38,8.69h3.16v-.33h-3.16v.33Z"/><path class="cls-1" d="m6.54,7.66h-2.77s0,.33,0,.33h2.77v-.33Z"/><path class="cls-1" d="m4.25,9.39h2.29v-.35h-2.29v.35Z"/><path class="cls-1" d="m6.54,7.29v-.33h-1.78s.02.33.02.33h1.77Z"/></svg>