<svg width="106" height="52" viewBox="0 0 106 52" fill="none" xmlns="http://www.w3.org/2000/svg">
<path fill-rule="evenodd" clip-rule="evenodd" d="M10.9592 32.1996C8.44538 35.8894 5.93086 39.5781 3.41617 43.2651C3.74283 44.3542 4.06557 44.8624 4.93715 45.8044C6.27706 46.3487 6.6032 46.2843 8.12127 46.158C10.5891 43.533 12.3523 41.3157 14.0058 38.3828C14.6568 37.2911 15.3058 36.1996 15.9568 35.1079C15.4765 33.2525 15.7902 32.8175 13.483 31.8671C12.6393 31.981 11.8003 32.0902 10.9592 32.1996V32.1996Z" fill="#FF715B"/>
<path fill-rule="evenodd" clip-rule="evenodd" d="M93.4214 11.8989C97.0711 11.5456 100.72 11.1935 104.369 10.8423C104.884 10.0637 105.035 9.59287 105.172 8.54779C104.811 7.41621 104.599 7.24422 103.721 6.35272C100.767 6.17529 98.4416 6.22815 95.7217 6.72641C94.6907 6.88948 93.6608 7.05363 92.6297 7.21669C91.7114 8.49501 91.272 8.52573 91.885 10.4811C92.4004 10.9537 92.9103 11.4257 93.4214 11.8989V11.8989Z" fill="#FF715B"/>
<path fill-rule="evenodd" clip-rule="evenodd" d="M50.1752 36.0492C46.3004 36.5022 46.5527 36.4174 45.2254 38.5307C45.5339 40.2828 45.69 41.9798 45.7408 43.7479C46.2581 46.1689 46.2924 48.5208 49.1452 50.3515C49.7354 50.4633 50.3216 50.5757 50.9102 50.689C51.5863 50.4833 52.2583 50.2783 52.9344 50.0726C55.7566 48.5543 55.0476 48.0799 54.8214 45.9344C54.6156 44.728 54.4073 43.5205 54.2015 42.3139C53.2797 39.7137 53.0473 38.0848 50.1751 36.0493L50.1752 36.0492Z" fill="#FF715B"/>
<path fill-rule="evenodd" clip-rule="evenodd" d="M87.8333 31.8509C91.2448 34.3472 93.9829 36.6428 96.8095 39.4684C97.8779 41.8137 98.1368 41.6931 95.7304 43.3263C93.0992 43.6939 93.2565 43.6184 90.9763 42.4499C89.9441 41.5799 88.9129 40.7125 87.8807 39.8425C85.9718 37.8063 84.8664 36.4132 83.8497 34.117C85.2318 32.6257 85.3909 32.3276 87.8333 31.851L87.8333 31.8509Z" fill="#FF715B"/>
</svg>
