<svg width="431" height="431" viewBox="0 0 431 431" fill="none" xmlns="http://www.w3.org/2000/svg">
<rect width="431" height="431" rx="215.5" fill="#D9D0CB"/>
<path d="M122.5 261H112.5V281H122.5V261ZM222.5 281C228.023 281 232.5 276.523 232.5 271C232.5 265.477 228.023 261 222.5 261V281ZM122.5 281H222.5V261H122.5V281Z" fill="#FF7300"/>
<path d="M259.1 281C257.633 281 256.9 280.2 256.9 278.6V235.8L214.1 152.8C213.7 152 213.633 151.333 213.9 150.8C214.3 150.267 214.9 150 215.7 150H237.7C239.167 150 240.1 150.533 240.5 151.6L258.3 189.4C260.167 193.4 261.967 197.4 263.7 201.4C265.567 205.4 267.3 209.333 268.9 213.2H269.1C270.833 209.2 272.567 205.267 274.3 201.4C276.167 197.4 278.033 193.333 279.9 189.2L297.5 151.6C298.033 150.533 298.967 150 300.3 150H321.9C322.7 150 323.233 150.267 323.5 150.8C323.9 151.333 323.9 152 323.5 152.8L280.9 235.8V278.6C280.9 280.2 280.1 281 278.5 281H259.1Z" fill="#432E4C"/>
</svg>
