<?xml version="1.0" encoding="utf-8"?>
<!-- Generator: Adobe Illustrator 27.7.0, SVG Export Plug-In . SVG Version: 6.00 Build 0)  -->
<svg version="1.1" id="Layer_1" xmlns="http://www.w3.org/2000/svg" xmlns:xlink="http://www.w3.org/1999/xlink" x="0px" y="0px"
	 viewBox="0 0 700 700" style="enable-background:new 0 0 700 700;" xml:space="preserve">
<style type="text/css">
	.st0{fill:#72A681;}
</style>
<g>
	<path class="st0" d="M540.4,76.9L440.3,34C355.8-2.1,262.5-3.4,177.3,30.8l-15.7,6.1c-43,17.2-67.8,62.8-58.7,108.3l5.6,28.7
		c4.2,20.9,17.7,37.8,35.6,47.1v42.2c0,30,16,57.9,41.2,73.4c0,25,6.1,49.6,16.9,71.9c-8.8,6.9-17.7,12.3-27.3,15.2
		c-11.3,3.4-13.3,18.9-2.9,25c21.8,13,47.9,16,73.4,14.7c15,12.5,31.9,22.1,50.1,28.5v23.3c-91.1,0-165,73.9-165,165
		c0,7.6,6.1,13.7,13.7,13.7h412.4c7.6,0,13.7-6.1,13.7-13.7c0-91.1-73.9-165-165-165v-23.3c17.9-6.4,34.9-16,49.8-28.2
		c26,1.2,52.5-2.2,73.7-14.7c10.1-6.1,8.3-21.4-2.9-25c-9.6-2.9-18.7-8.3-27.3-15.2c10.8-22.3,16.9-46.9,16.9-71.9
		c25.3-15.5,41.2-43.5,41.2-73.4v-18.9c18.4-8.8,32.7-25.5,37.3-46.9l2.5-11C606.5,141,582.9,95.1,540.4,76.9L540.4,76.9z
		 M171.7,263.3v-34.1l0,0l13.7,0.7v71C176.8,290.5,171.7,277.2,171.7,263.3L171.7,263.3z M212.9,336.4V231.6l275,17.2v87.6
		c0,18.2-3.7,36.1-10.6,52.8c-21.8-22.3-41-47.4-63.1-59.2c-20.4-10.8-45.2-9.1-63.8,3.2c-18.7-12.5-43.5-14-63.8-3.2
		c-21.8,11.5-40.8,36.1-63.1,58.9C216.6,372.5,212.9,354.6,212.9,336.4L212.9,336.4z M542.2,666.4H158.7
		c6.9-69.5,65.5-123.7,136.7-123.7v13.7c0,5.9,3.7,11.3,9.3,13c30.2,10.1,62.4,9.6,91.1,0c5.6-2,9.3-7.1,9.3-13v-13.7
		C476.6,542.6,535.3,596.9,542.2,666.4L542.2,666.4z M377.9,546.1c-17.9,4.4-37.1,4.4-55,0v-47.1c19.1,3.2,36.1,3.2,55,0V546.1z
		 M286.8,458.2c17.7-3.7,49.1-12.5,63.6-22.3c14.2,9.6,46.4,18.7,63.8,22.3C375.2,478.6,328.1,479.8,286.8,458.2z M360.2,408.3
		c-5.2-5.4-14.5-5.4-19.6,0c-14.5,15-82.7,33.4-126.9,26.3c34.6-24.8,61.6-67.3,85.9-80c13.7-7.4,30.2-4.7,41,6.4
		c5.2,5.4,14.5,5.4,19.6,0c10.8-11,27.3-13.5,41-6.4l0,0c24.3,13,51.1,55.5,85.9,80C443.2,441.7,375,423.3,360.2,408.3L360.2,408.3z
		 M529.1,263.3c0,14-5.2,27.3-13.7,37.8v-50.3c8.1,0.5,6.4,0.5,13.7,0.5V263.3z M569.7,180.3l-2.5,11c-4.4,19.9-22.6,33.4-42.7,32.2
		l-350.8-21.8c-18.7-1.2-34.1-14.7-37.8-33.1l-5.6-28.7c-6.4-32.4,11-65.1,42-77.3l15.7-6.1c78.6-31.4,164.5-30.2,242.1,2.9
		l100.2,43C560.1,115.2,576.8,148.1,569.7,180.3L569.7,180.3z"/>
</g>
</svg>
