<?xml version="1.0" encoding="utf-8"?>
<!-- Generator: Adobe Illustrator 27.7.0, SVG Export Plug-In . SVG Version: 6.00 Build 0)  -->
<svg version="1.1" id="Layer_1" xmlns="http://www.w3.org/2000/svg" xmlns:xlink="http://www.w3.org/1999/xlink" x="0px" y="0px"
	 viewBox="0 0 700 700" style="enable-background:new 0 0 700 700;" xml:space="preserve">
<style type="text/css">
	.st0{fill:#72A681;}
</style>
<g>
	<path class="st0" d="M295.8,350c37.3,0,67.8-30.5,67.8-67.8s-30.5-67.8-67.8-67.8S228,244.9,228,282.2S258.5,350,295.8,350z
		 M295.8,241.5c22.5,0,40.7,18.2,40.7,40.7s-18.2,40.7-40.7,40.7s-40.7-18.2-40.7-40.7S273.2,241.5,295.8,241.5z M594.1,11H105.9
		c-7.5,0-13.6,6.1-13.6,13.6v650.9c0,7.5,6.1,13.6,13.6,13.6h488.2c7.5,0,13.6-6.1,13.6-13.6V24.6C607.6,17.1,601.6,11,594.1,11z
		 M580.5,661.9h-461V38.1h461V661.9z M160.2,634.8h379.7c7.5,0,13.6-6.1,13.6-13.6V78.8c0-7.5-6.1-13.6-13.6-13.6H160.2
		c-7.5,0-13.6,6.1-13.6,13.6v542.4C146.6,628.7,152.7,634.8,160.2,634.8L160.2,634.8z M173.7,607.6V491.2l67.8-67.8l58.1,58.1
		c5.3,5.3,13.8,5.3,19.1,0l112.4-112.4L526,464v143.6H173.7z M526.3,92.4v333.4L441,340.3c-5.3-5.3-13.8-5.3-19.1,0L309.6,452.7
		l-58.1-58.1c-5.3-5.3-13.8-5.3-19.1,0l-58.1,58.1V92.4H526.3z"/>
</g>
</svg>
